<mxfile host="app.diagrams.net" modified="2020-11-13T02:41:34.199Z" agent="5.0 (Windows NT 10.0; Win64; x64) AppleWebKit/537.36 (KHTML, like Gecko) Chrome/86.0.4240.183 Safari/537.36 Edg/86.0.622.63" etag="1CJOStrXW151jvOo2Iy4" version="13.9.7" type="github">
  <diagram id="R2lEEEUBdFMjLlhIrx00" name="Page-1">
    <mxGraphModel dx="1608" dy="344" grid="1" gridSize="10" guides="1" tooltips="1" connect="1" arrows="1" fold="1" page="1" pageScale="1" pageWidth="850" pageHeight="1100" math="0" shadow="0" extFonts="Permanent Marker^https://fonts.googleapis.com/css?family=Permanent+Marker">
      <root>
        <mxCell id="0" />
        <mxCell id="1" parent="0" />
        <mxCell id="UWcYV5fiP9CUQnte0Ps--20" value="Branch" style="whiteSpace=wrap;html=1;align=center;" parent="1" vertex="1">
          <mxGeometry x="440" y="60" width="100" height="40" as="geometry" />
        </mxCell>
        <mxCell id="UWcYV5fiP9CUQnte0Ps--22" value="Name" style="ellipse;whiteSpace=wrap;html=1;align=center;fontStyle=4;" parent="1" vertex="1">
          <mxGeometry x="350" y="10" width="100" height="40" as="geometry" />
        </mxCell>
        <mxCell id="UWcYV5fiP9CUQnte0Ps--23" value="City" style="ellipse;whiteSpace=wrap;html=1;align=center;" parent="1" vertex="1">
          <mxGeometry x="470" y="10" width="100" height="40" as="geometry" />
        </mxCell>
        <mxCell id="UWcYV5fiP9CUQnte0Ps--24" value="Customer" style="whiteSpace=wrap;html=1;align=center;" parent="1" vertex="1">
          <mxGeometry x="140" y="260" width="100" height="40" as="geometry" />
        </mxCell>
        <mxCell id="UWcYV5fiP9CUQnte0Ps--25" value="Customer_id" style="ellipse;whiteSpace=wrap;html=1;align=center;fontStyle=4;" parent="1" vertex="1">
          <mxGeometry x="130" y="180" width="100" height="40" as="geometry" />
        </mxCell>
        <mxCell id="UWcYV5fiP9CUQnte0Ps--26" value="Name" style="ellipse;whiteSpace=wrap;html=1;align=center;" parent="1" vertex="1">
          <mxGeometry x="30" y="210" width="100" height="40" as="geometry" />
        </mxCell>
        <mxCell id="UWcYV5fiP9CUQnte0Ps--27" value="Street" style="ellipse;whiteSpace=wrap;html=1;align=center;" parent="1" vertex="1">
          <mxGeometry x="10" y="270" width="100" height="40" as="geometry" />
        </mxCell>
        <mxCell id="UWcYV5fiP9CUQnte0Ps--28" value="City" style="ellipse;whiteSpace=wrap;html=1;align=center;" parent="1" vertex="1">
          <mxGeometry x="40" y="330" width="100" height="40" as="geometry" />
        </mxCell>
        <mxCell id="UWcYV5fiP9CUQnte0Ps--30" value="Employee" style="whiteSpace=wrap;html=1;align=center;" parent="1" vertex="1">
          <mxGeometry x="750" y="270" width="100" height="40" as="geometry" />
        </mxCell>
        <mxCell id="UWcYV5fiP9CUQnte0Ps--31" value="Name" style="ellipse;whiteSpace=wrap;html=1;align=center;" parent="1" vertex="1">
          <mxGeometry x="870" y="220" width="100" height="40" as="geometry" />
        </mxCell>
        <mxCell id="UWcYV5fiP9CUQnte0Ps--32" value="Employee_id" style="ellipse;whiteSpace=wrap;html=1;align=center;fontStyle=4;" parent="1" vertex="1">
          <mxGeometry x="770" y="190" width="100" height="40" as="geometry" />
        </mxCell>
        <mxCell id="UWcYV5fiP9CUQnte0Ps--34" value="Phone" style="ellipse;whiteSpace=wrap;html=1;align=center;" parent="1" vertex="1">
          <mxGeometry x="890" y="270" width="100" height="40" as="geometry" />
        </mxCell>
        <mxCell id="UWcYV5fiP9CUQnte0Ps--35" value="Start_date" style="ellipse;whiteSpace=wrap;html=1;align=center;" parent="1" vertex="1">
          <mxGeometry x="860" y="320" width="100" height="40" as="geometry" />
        </mxCell>
        <mxCell id="UWcYV5fiP9CUQnte0Ps--36" value="Dependents" style="ellipse;shape=doubleEllipse;margin=3;whiteSpace=wrap;html=1;align=center;" parent="1" vertex="1">
          <mxGeometry x="770" y="350" width="100" height="40" as="geometry" />
        </mxCell>
        <mxCell id="UWcYV5fiP9CUQnte0Ps--37" value="Account" style="whiteSpace=wrap;html=1;align=center;" parent="1" vertex="1">
          <mxGeometry x="590" y="540" width="100" height="40" as="geometry" />
        </mxCell>
        <mxCell id="UWcYV5fiP9CUQnte0Ps--38" value="Balance" style="ellipse;whiteSpace=wrap;html=1;align=center;" parent="1" vertex="1">
          <mxGeometry x="710" y="560" width="100" height="40" as="geometry" />
        </mxCell>
        <mxCell id="UWcYV5fiP9CUQnte0Ps--39" value="Acc_Number" style="ellipse;whiteSpace=wrap;html=1;align=center;fontStyle=4;" parent="1" vertex="1">
          <mxGeometry x="700" y="500" width="100" height="40" as="geometry" />
        </mxCell>
        <mxCell id="UWcYV5fiP9CUQnte0Ps--40" value="" style="ellipse;whiteSpace=wrap;html=1;aspect=fixed;" parent="1" vertex="1">
          <mxGeometry x="620" y="650" width="40" height="40" as="geometry" />
        </mxCell>
        <mxCell id="UWcYV5fiP9CUQnte0Ps--42" value="Checking" style="whiteSpace=wrap;html=1;align=center;" parent="1" vertex="1">
          <mxGeometry x="710" y="740" width="100" height="40" as="geometry" />
        </mxCell>
        <mxCell id="UWcYV5fiP9CUQnte0Ps--43" value="Saving" style="whiteSpace=wrap;html=1;align=center;" parent="1" vertex="1">
          <mxGeometry x="520" y="750" width="100" height="40" as="geometry" />
        </mxCell>
        <mxCell id="UWcYV5fiP9CUQnte0Ps--44" value="Overdraft" style="ellipse;whiteSpace=wrap;html=1;align=center;" parent="1" vertex="1">
          <mxGeometry x="790" y="810" width="100" height="40" as="geometry" />
        </mxCell>
        <mxCell id="UWcYV5fiP9CUQnte0Ps--45" value="Interest Rate" style="ellipse;whiteSpace=wrap;html=1;align=center;" parent="1" vertex="1">
          <mxGeometry x="470" y="810" width="100" height="40" as="geometry" />
        </mxCell>
        <mxCell id="UWcYV5fiP9CUQnte0Ps--46" value="Relationship" style="shape=rhombus;perimeter=rhombusPerimeter;whiteSpace=wrap;html=1;align=center;" parent="1" vertex="1">
          <mxGeometry x="320" y="520" width="120" height="60" as="geometry" />
        </mxCell>
        <mxCell id="UWcYV5fiP9CUQnte0Ps--47" value="Recent access date" style="ellipse;whiteSpace=wrap;html=1;align=center;" parent="1" vertex="1">
          <mxGeometry x="300" y="610" width="100" height="40" as="geometry" />
        </mxCell>
        <mxCell id="UWcYV5fiP9CUQnte0Ps--48" value="Relationship" style="shape=rhombus;perimeter=rhombusPerimeter;whiteSpace=wrap;html=1;align=center;" parent="1" vertex="1">
          <mxGeometry x="460" y="150" width="120" height="60" as="geometry" />
        </mxCell>
        <mxCell id="UWcYV5fiP9CUQnte0Ps--49" value="Relationship" style="shape=rhombus;perimeter=rhombusPerimeter;whiteSpace=wrap;html=1;align=center;" parent="1" vertex="1">
          <mxGeometry x="340" y="240" width="120" height="60" as="geometry" />
        </mxCell>
        <mxCell id="UWcYV5fiP9CUQnte0Ps--50" value="Relationship" style="shape=rhombus;perimeter=rhombusPerimeter;whiteSpace=wrap;html=1;align=center;" parent="1" vertex="1">
          <mxGeometry x="590" y="240" width="120" height="60" as="geometry" />
        </mxCell>
        <mxCell id="UWcYV5fiP9CUQnte0Ps--52" value="Relationship" style="shape=rhombus;perimeter=rhombusPerimeter;whiteSpace=wrap;html=1;align=center;" parent="1" vertex="1">
          <mxGeometry x="80" y="540" width="120" height="60" as="geometry" />
        </mxCell>
        <mxCell id="UWcYV5fiP9CUQnte0Ps--53" value="Relationship" style="shape=rhombus;perimeter=rhombusPerimeter;whiteSpace=wrap;html=1;align=center;" parent="1" vertex="1">
          <mxGeometry x="-50" y="540" width="120" height="60" as="geometry" />
        </mxCell>
        <mxCell id="UWcYV5fiP9CUQnte0Ps--54" value="Loan" style="whiteSpace=wrap;html=1;align=center;" parent="1" vertex="1">
          <mxGeometry x="20" y="770" width="100" height="40" as="geometry" />
        </mxCell>
        <mxCell id="UWcYV5fiP9CUQnte0Ps--55" value="Loan_id" style="ellipse;whiteSpace=wrap;html=1;align=center;fontStyle=4;" parent="1" vertex="1">
          <mxGeometry x="-90" y="730" width="100" height="40" as="geometry" />
        </mxCell>
        <mxCell id="UWcYV5fiP9CUQnte0Ps--56" value="Amount" style="ellipse;whiteSpace=wrap;html=1;align=center;" parent="1" vertex="1">
          <mxGeometry x="50" y="720" width="100" height="40" as="geometry" />
        </mxCell>
        <mxCell id="UWcYV5fiP9CUQnte0Ps--57" value="loan payement" style="shape=rhombus;double=1;perimeter=rhombusPerimeter;whiteSpace=wrap;html=1;align=center;" parent="1" vertex="1">
          <mxGeometry x="190" y="760" width="120" height="60" as="geometry" />
        </mxCell>
        <mxCell id="UWcYV5fiP9CUQnte0Ps--58" value="re-payment" style="shape=ext;margin=3;double=1;whiteSpace=wrap;html=1;align=center;" parent="1" vertex="1">
          <mxGeometry x="210" y="870" width="100" height="40" as="geometry" />
        </mxCell>
        <mxCell id="UWcYV5fiP9CUQnte0Ps--60" value="date" style="ellipse;whiteSpace=wrap;html=1;align=center;" parent="1" vertex="1">
          <mxGeometry x="330" y="900" width="100" height="40" as="geometry" />
        </mxCell>
        <mxCell id="UWcYV5fiP9CUQnte0Ps--61" value="Amount" style="ellipse;whiteSpace=wrap;html=1;align=center;" parent="1" vertex="1">
          <mxGeometry x="220" y="950" width="100" height="40" as="geometry" />
        </mxCell>
        <mxCell id="UWcYV5fiP9CUQnte0Ps--62" value="&lt;span style=&quot;border-bottom: 1px dotted&quot;&gt;Pay_number&lt;/span&gt;" style="ellipse;whiteSpace=wrap;html=1;align=center;" parent="1" vertex="1">
          <mxGeometry x="100" y="920" width="100" height="40" as="geometry" />
        </mxCell>
        <mxCell id="UWcYV5fiP9CUQnte0Ps--63" value="Atm" style="whiteSpace=wrap;html=1;align=center;" parent="1" vertex="1">
          <mxGeometry x="820" y="1090" width="100" height="40" as="geometry" />
        </mxCell>
        <mxCell id="UWcYV5fiP9CUQnte0Ps--64" value="card-reader" style="ellipse;whiteSpace=wrap;html=1;align=center;" parent="1" vertex="1">
          <mxGeometry x="960" y="1020" width="100" height="40" as="geometry" />
        </mxCell>
        <mxCell id="UWcYV5fiP9CUQnte0Ps--65" value="keyboard" style="ellipse;whiteSpace=wrap;html=1;align=center;" parent="1" vertex="1">
          <mxGeometry x="1000" y="1080" width="100" height="40" as="geometry" />
        </mxCell>
        <mxCell id="UWcYV5fiP9CUQnte0Ps--66" value="display" style="ellipse;whiteSpace=wrap;html=1;align=center;" parent="1" vertex="1">
          <mxGeometry x="980" y="1130" width="100" height="40" as="geometry" />
        </mxCell>
        <mxCell id="UWcYV5fiP9CUQnte0Ps--67" value="Receipt Printer" style="ellipse;whiteSpace=wrap;html=1;align=center;" parent="1" vertex="1">
          <mxGeometry x="830" y="1170" width="100" height="40" as="geometry" />
        </mxCell>
        <mxCell id="UWcYV5fiP9CUQnte0Ps--68" value="Relationship" style="shape=rhombus;perimeter=rhombusPerimeter;whiteSpace=wrap;html=1;align=center;" parent="1" vertex="1">
          <mxGeometry x="490" y="1080" width="120" height="60" as="geometry" />
        </mxCell>
        <mxCell id="UWcYV5fiP9CUQnte0Ps--70" value="Atm Card" style="whiteSpace=wrap;html=1;align=center;" parent="1" vertex="1">
          <mxGeometry x="210" y="1090" width="100" height="40" as="geometry" />
        </mxCell>
        <mxCell id="UWcYV5fiP9CUQnte0Ps--71" value="PIN" style="ellipse;whiteSpace=wrap;html=1;align=center;" parent="1" vertex="1">
          <mxGeometry x="320" y="1030" width="100" height="40" as="geometry" />
        </mxCell>
        <mxCell id="UWcYV5fiP9CUQnte0Ps--72" value="Expiration date" style="ellipse;whiteSpace=wrap;html=1;align=center;" parent="1" vertex="1">
          <mxGeometry x="200" y="1010" width="100" height="40" as="geometry" />
        </mxCell>
        <mxCell id="UWcYV5fiP9CUQnte0Ps--73" value="Start Date" style="ellipse;whiteSpace=wrap;html=1;align=center;" parent="1" vertex="1">
          <mxGeometry x="90" y="1030" width="100" height="40" as="geometry" />
        </mxCell>
        <mxCell id="UWcYV5fiP9CUQnte0Ps--74" value="Card_Number" style="ellipse;whiteSpace=wrap;html=1;align=center;fontStyle=4;" parent="1" vertex="1">
          <mxGeometry x="90" y="1120" width="100" height="40" as="geometry" />
        </mxCell>
        <mxCell id="UWcYV5fiP9CUQnte0Ps--75" value="Validated_card" style="whiteSpace=wrap;html=1;align=center;" parent="1" vertex="1">
          <mxGeometry x="210" y="1230" width="100" height="40" as="geometry" />
        </mxCell>
        <mxCell id="UWcYV5fiP9CUQnte0Ps--76" value="" style="shape=requiredInterface;html=1;verticalLabelPosition=bottom;direction=south;" parent="1" vertex="1">
          <mxGeometry x="250" y="1190" width="20" height="10" as="geometry" />
        </mxCell>
        <mxCell id="UWcYV5fiP9CUQnte0Ps--77" value="Relationship" style="shape=rhombus;perimeter=rhombusPerimeter;whiteSpace=wrap;html=1;align=center;" parent="1" vertex="1">
          <mxGeometry x="-100" y="1220" width="120" height="60" as="geometry" />
        </mxCell>
        <mxCell id="UWcYV5fiP9CUQnte0Ps--78" value="Transaction" style="whiteSpace=wrap;html=1;align=center;" parent="1" vertex="1">
          <mxGeometry x="-495" y="1150" width="100" height="40" as="geometry" />
        </mxCell>
        <mxCell id="UWcYV5fiP9CUQnte0Ps--79" value="" style="ellipse;whiteSpace=wrap;html=1;aspect=fixed;" parent="1" vertex="1">
          <mxGeometry x="-465" y="1230" width="40" height="40" as="geometry" />
        </mxCell>
        <mxCell id="UWcYV5fiP9CUQnte0Ps--80" value="Transc_ID" style="ellipse;whiteSpace=wrap;html=1;align=center;fontStyle=4;" parent="1" vertex="1">
          <mxGeometry x="-630" y="1100" width="100" height="40" as="geometry" />
        </mxCell>
        <mxCell id="UWcYV5fiP9CUQnte0Ps--84" value="Entity" style="whiteSpace=wrap;html=1;align=center;" parent="1" vertex="1">
          <mxGeometry x="-260" y="1360" width="100" height="40" as="geometry" />
        </mxCell>
        <mxCell id="UWcYV5fiP9CUQnte0Ps--85" value="Entity" style="whiteSpace=wrap;html=1;align=center;" parent="1" vertex="1">
          <mxGeometry x="-490" y="1360" width="100" height="40" as="geometry" />
        </mxCell>
        <mxCell id="UWcYV5fiP9CUQnte0Ps--86" value="Entity" style="whiteSpace=wrap;html=1;align=center;" parent="1" vertex="1">
          <mxGeometry x="-700" y="1360" width="100" height="40" as="geometry" />
        </mxCell>
        <mxCell id="UWcYV5fiP9CUQnte0Ps--87" value="Attribute" style="ellipse;whiteSpace=wrap;html=1;align=center;" parent="1" vertex="1">
          <mxGeometry x="-800" y="1430" width="100" height="40" as="geometry" />
        </mxCell>
        <mxCell id="UWcYV5fiP9CUQnte0Ps--88" value="Attribute" style="ellipse;whiteSpace=wrap;html=1;align=center;" parent="1" vertex="1">
          <mxGeometry x="-680" y="1430" width="100" height="40" as="geometry" />
        </mxCell>
        <mxCell id="UWcYV5fiP9CUQnte0Ps--89" value="Attribute" style="ellipse;whiteSpace=wrap;html=1;align=center;" parent="1" vertex="1">
          <mxGeometry x="-435" y="1430" width="100" height="40" as="geometry" />
        </mxCell>
        <mxCell id="UWcYV5fiP9CUQnte0Ps--91" value="Relationship" style="shape=rhombus;double=1;perimeter=rhombusPerimeter;whiteSpace=wrap;html=1;align=center;" parent="1" vertex="1">
          <mxGeometry x="-530" y="1480" width="120" height="60" as="geometry" />
        </mxCell>
        <mxCell id="UWcYV5fiP9CUQnte0Ps--93" value="Entity" style="shape=ext;margin=3;double=1;whiteSpace=wrap;html=1;align=center;" parent="1" vertex="1">
          <mxGeometry x="-520" y="1580" width="100" height="40" as="geometry" />
        </mxCell>
        <mxCell id="UWcYV5fiP9CUQnte0Ps--96" value="Attribute" style="ellipse;whiteSpace=wrap;html=1;align=center;" parent="1" vertex="1">
          <mxGeometry x="-630" y="1650" width="100" height="40" as="geometry" />
        </mxCell>
        <mxCell id="UWcYV5fiP9CUQnte0Ps--97" value="Attribute" style="ellipse;whiteSpace=wrap;html=1;align=center;" parent="1" vertex="1">
          <mxGeometry x="-490" y="1650" width="100" height="40" as="geometry" />
        </mxCell>
        <mxCell id="UWcYV5fiP9CUQnte0Ps--98" value="Attribute" style="ellipse;whiteSpace=wrap;html=1;align=center;" parent="1" vertex="1">
          <mxGeometry x="-350" y="1650" width="100" height="40" as="geometry" />
        </mxCell>
        <mxCell id="UWcYV5fiP9CUQnte0Ps--99" value="Attribute" style="ellipse;whiteSpace=wrap;html=1;align=center;" parent="1" vertex="1">
          <mxGeometry x="-180" y="1300" width="100" height="40" as="geometry" />
        </mxCell>
        <mxCell id="UWcYV5fiP9CUQnte0Ps--100" value="Attribute" style="ellipse;whiteSpace=wrap;html=1;align=center;" parent="1" vertex="1">
          <mxGeometry x="-120" y="1350" width="100" height="40" as="geometry" />
        </mxCell>
        <mxCell id="UWcYV5fiP9CUQnte0Ps--101" value="Attribute" style="ellipse;whiteSpace=wrap;html=1;align=center;" parent="1" vertex="1">
          <mxGeometry x="-140" y="1400" width="100" height="40" as="geometry" />
        </mxCell>
        <mxCell id="q-OQ38oOY_8WrYEihijI-1" value="Lname" style="ellipse;whiteSpace=wrap;html=1;align=center;" vertex="1" parent="1">
          <mxGeometry x="-90" y="250" width="100" height="40" as="geometry" />
        </mxCell>
        <mxCell id="q-OQ38oOY_8WrYEihijI-2" value="Mname" style="ellipse;whiteSpace=wrap;html=1;align=center;" vertex="1" parent="1">
          <mxGeometry x="-90" y="200" width="100" height="40" as="geometry" />
        </mxCell>
        <mxCell id="q-OQ38oOY_8WrYEihijI-3" value="Fname" style="ellipse;whiteSpace=wrap;html=1;align=center;" vertex="1" parent="1">
          <mxGeometry x="-50" y="150" width="100" height="40" as="geometry" />
        </mxCell>
        <mxCell id="q-OQ38oOY_8WrYEihijI-5" value="Length of employment" style="ellipse;whiteSpace=wrap;html=1;align=center;dashed=1;" vertex="1" parent="1">
          <mxGeometry x="980" y="360" width="100" height="40" as="geometry" />
        </mxCell>
        <mxCell id="q-OQ38oOY_8WrYEihijI-6" value="d" style="text;html=1;strokeColor=none;fillColor=none;align=center;verticalAlign=middle;whiteSpace=wrap;rounded=0;" vertex="1" parent="1">
          <mxGeometry x="620" y="660" width="40" height="20" as="geometry" />
        </mxCell>
        <mxCell id="q-OQ38oOY_8WrYEihijI-8" value="Cash_dispenser" style="ellipse;whiteSpace=wrap;html=1;align=center;" vertex="1" parent="1">
          <mxGeometry x="950" y="1170" width="100" height="40" as="geometry" />
        </mxCell>
        <mxCell id="q-OQ38oOY_8WrYEihijI-9" value="" style="endArrow=none;html=1;exitX=0.5;exitY=1;exitDx=0;exitDy=0;" edge="1" parent="1" source="UWcYV5fiP9CUQnte0Ps--70" target="UWcYV5fiP9CUQnte0Ps--75">
          <mxGeometry width="50" height="50" relative="1" as="geometry">
            <mxPoint x="390" y="1210" as="sourcePoint" />
            <mxPoint x="440" y="1160" as="targetPoint" />
          </mxGeometry>
        </mxCell>
        <mxCell id="q-OQ38oOY_8WrYEihijI-10" value="d" style="text;html=1;strokeColor=none;fillColor=none;align=center;verticalAlign=middle;whiteSpace=wrap;rounded=0;" vertex="1" parent="1">
          <mxGeometry x="-465" y="1240" width="40" height="20" as="geometry" />
        </mxCell>
        <mxCell id="q-OQ38oOY_8WrYEihijI-16" value="" style="shape=requiredInterface;html=1;verticalLabelPosition=bottom;rotation=90;" vertex="1" parent="1">
          <mxGeometry x="-450" y="1310" width="10" height="20" as="geometry" />
        </mxCell>
        <mxCell id="q-OQ38oOY_8WrYEihijI-17" value="" style="shape=requiredInterface;html=1;verticalLabelPosition=bottom;rotation=-210;" vertex="1" parent="1">
          <mxGeometry x="-560" y="1290" width="10" height="20" as="geometry" />
        </mxCell>
        <mxCell id="q-OQ38oOY_8WrYEihijI-15" value="" style="shape=requiredInterface;html=1;verticalLabelPosition=bottom;rotation=20;" vertex="1" parent="1">
          <mxGeometry x="-320" y="1300" width="10" height="20" as="geometry" />
        </mxCell>
        <mxCell id="q-OQ38oOY_8WrYEihijI-22" value="" style="html=1;points=[];perimeter=orthogonalPerimeter;" vertex="1" parent="1">
          <mxGeometry x="-450" y="1190" width="10" height="40" as="geometry" />
        </mxCell>
        <mxCell id="q-OQ38oOY_8WrYEihijI-23" value="" style="endArrow=none;html=1;exitX=0.93;exitY=1.032;exitDx=0;exitDy=0;entryX=0.5;entryY=0;entryDx=0;entryDy=0;exitPerimeter=0;" edge="1" parent="1" source="q-OQ38oOY_8WrYEihijI-10" target="UWcYV5fiP9CUQnte0Ps--84">
          <mxGeometry width="50" height="50" relative="1" as="geometry">
            <mxPoint x="-340" y="1340" as="sourcePoint" />
            <mxPoint x="-290" y="1290" as="targetPoint" />
          </mxGeometry>
        </mxCell>
        <mxCell id="q-OQ38oOY_8WrYEihijI-24" value="" style="endArrow=none;html=1;exitX=0.5;exitY=1;exitDx=0;exitDy=0;entryX=0.45;entryY=0.007;entryDx=0;entryDy=0;entryPerimeter=0;" edge="1" parent="1" source="UWcYV5fiP9CUQnte0Ps--79" target="UWcYV5fiP9CUQnte0Ps--85">
          <mxGeometry width="50" height="50" relative="1" as="geometry">
            <mxPoint x="-300" y="1260" as="sourcePoint" />
            <mxPoint x="-250" y="1210" as="targetPoint" />
          </mxGeometry>
        </mxCell>
        <mxCell id="q-OQ38oOY_8WrYEihijI-25" value="" style="endArrow=none;html=1;entryX=0.052;entryY=0.662;entryDx=0;entryDy=0;entryPerimeter=0;exitX=0.25;exitY=0;exitDx=0;exitDy=0;" edge="1" parent="1" source="UWcYV5fiP9CUQnte0Ps--86" target="UWcYV5fiP9CUQnte0Ps--79">
          <mxGeometry width="50" height="50" relative="1" as="geometry">
            <mxPoint x="-490" y="1330" as="sourcePoint" />
            <mxPoint x="-440" y="1280" as="targetPoint" />
          </mxGeometry>
        </mxCell>
      </root>
    </mxGraphModel>
  </diagram>
</mxfile>
